<svg width="12" height="12" viewBox="0 0 12 12" fill="none" xmlns="http://www.w3.org/2000/svg">
<path d="M4.87142 2.81327C5.29946 1.74615 5.51349 1.21259 5.86121 1.13864C5.95264 1.11919 6.04713 1.11919 6.13856 1.13864C6.48628 1.21259 6.70031 1.74615 7.12836 2.81327C7.37178 3.42013 7.49349 3.72355 7.72123 3.92993C7.78511 3.98782 7.85445 4.03937 7.92829 4.08387C8.19151 4.24252 8.52011 4.27195 9.1773 4.33081C10.2898 4.43044 10.8461 4.48026 11.0159 4.79742C11.0511 4.86311 11.075 4.93423 11.0867 5.00782C11.143 5.36318 10.7341 5.73522 9.91622 6.4793L9.6891 6.68592C9.30674 7.03379 9.11556 7.20773 9.00497 7.4248C8.93864 7.55501 8.89416 7.69524 8.87332 7.83988C8.83858 8.08101 8.89456 8.33334 9.00653 8.83799L9.04654 9.0183C9.24734 9.92332 9.34773 10.3758 9.22241 10.5983C9.10983 10.7981 8.90246 10.926 8.6734 10.9369C8.41838 10.9491 8.05906 10.6563 7.34041 10.0707C6.86694 9.68487 6.6302 9.49197 6.36739 9.41661C6.12723 9.34775 5.87254 9.34774 5.63238 9.41661C5.36957 9.49197 5.13284 9.68487 4.65936 10.0707C3.94071 10.6563 3.58139 10.9491 3.32637 10.9369C3.09731 10.926 2.88994 10.7981 2.77737 10.5983C2.65204 10.3758 2.75244 9.92332 2.95323 9.0183L2.99324 8.83799C3.10521 8.33334 3.16119 8.08101 3.12645 7.83988C3.10561 7.69524 3.06113 7.55501 2.9948 7.4248C2.88422 7.20773 2.69304 7.03379 2.31067 6.68592L2.08356 6.4793C1.2657 5.73522 0.856768 5.36318 0.913084 5.00782C0.924748 4.93423 0.948667 4.86311 0.983848 4.79742C1.15371 4.48026 1.70997 4.43044 2.82248 4.33081C3.47967 4.27195 3.80826 4.24252 4.07149 4.08387C4.14532 4.03937 4.21466 3.98782 4.27854 3.92993C4.50628 3.72355 4.62799 3.42013 4.87142 2.81327Z" fill="#3971FF" stroke="#3971FF"/>
</svg>
